<svg width="302.90000000000003" height="53.03402266843822" viewBox="0 0 370.18518518518516 64.81482173202743" class="css-1j8o68f"><defs id="SvgjsDefs1079"></defs><g id="SvgjsG1080" featurekey="UFHKJ9-0" transform="matrix(0.22666322292248525,0,0,0.22666322292248525,-1.6147409265825274,-1.5920759228839334)" fill="#4ecca3"><g xmlns="http://www.w3.org/2000/svg"><path d="M273.5,150c0.1-0.1-91.1-91.8-91.1-91.8c-2.2-2.2-1.5-5.8,1.2-7.1c18.1-8.9,40.4-6.3,55.7,8.3   c10.1,9.7,15.2,22.8,15.1,35.7c0,2.4,1,4.7,2.7,6.4l23.8,23.8c2.3,2.3,6.3,1.4,7.3-1.6c10.7-30.8,3.8-66.4-20.8-91   c-32-32-82.9-34-117.3-6.1c-0.1-0.1-91.8,91.1-91.8,91.1c-2.2,2.2-5.8,1.5-7.1-1.2c-8.9-18.1-6.3-40.4,8.3-55.7   c9.7-10.1,22.8-15.2,35.7-15.1c2.4,0,4.7-1,6.4-2.7l23.8-23.8c2.3-2.3,1.4-6.3-1.6-7.3C93,1.2,57.4,8.1,32.8,32.7   c-32,32-34,82.9-6.1,117.3c-0.1,0.1,91.1,91.8,91.1,91.8c2.2,2.2,1.5,5.8-1.2,7.1c-18.1,8.9-40.4,6.3-55.7-8.3   c-10.1-9.7-15.2-22.8-15.1-35.7c0-2.4-1-4.7-2.7-6.4l-23.8-23.8c-2.3-2.3-6.3-1.4-7.3,1.6c-10.7,30.8-3.8,66.4,20.8,91   c32,32,82.9,34,117.3,6.1c0.1,0.1,91.8-91.1,91.8-91.1c2.2-2.2,5.8-1.5,7.1,1.2c8.9,18.1,6.3,40.4-8.3,55.7   c-9.7,10.1-22.8,15.2-35.7,15.1c-2.4,0-4.7,1-6.4,2.7l-23.8,23.8c-2.3,2.3-1.4,6.3,1.6,7.3c30.8,10.7,66.4,3.8,91-20.8   C299.4,235.3,301.4,184.4,273.5,150z M232.2,167.4c-13.4-4.5-29-1.4-39.7,9.3c0,0-40.6,40.6-56.4,56.4c-1.2,1.2-3.3,0-2.8-1.7   c4-13.3,0.8-28.2-9.6-38.7c0,0-40.9-40.9-57.5-57.6c-1.2-1.2,0.1-3.3,1.7-2.8c13.4,4.5,29,1.4,39.7-9.3c0,0,40.4-40.4,57.9-57.8   c1.2-1.2,3.4,0.1,2.8,1.7c-5,13.7-2,29.6,9.1,40.7c0,0,40.2,40.2,56.7,56.8C235.2,165.9,233.9,168,232.2,167.4z"></path></g></g><g id="SvgjsG1081" featurekey="XAPJzK-0" transform="matrix(2.679304572002201,0,0,2.679304572002201,83.12448731063525,-7.11127615077468)" fill="#393e46"><path d="M9.98 5.640000000000001 l0 14.36 l-1.66 0 l0 -1.44 l-0.04 0 c-0.76 1.42 -1.96 1.74 -2.98 1.74 c-3.56 0 -4.6 -3.34 -4.6 -5.84 c0 -2.94 1.58 -5.22 4.36 -5.22 c1.9 0 2.7 1.18 3.12 1.78 l0.04 -0.14 l0 -5.24 l1.76 0 z M2.52 14.74 c0 2.3 0.9 4.04 2.82 4.04 c1.12 0 2.86 -0.74 2.86 -3.52 c0 -1.7 -0.28 -4.44 -2.82 -4.44 c-2.72 0 -2.86 2.58 -2.86 3.92 z M19.54 16.72 l1.76 0 c-0.06 0.5 -0.54 1.98 -1.86 2.86 c-0.48 0.32 -1.16 0.72 -2.84 0.72 c-2.94 0 -4.68 -2.22 -4.68 -5.24 c0 -3.24 1.56 -5.82 5.02 -5.82 c3.02 0 4.5 2.4 4.5 6.1 l-7.64 0 c0 2.18 1.02 3.44 3.04 3.44 c1.66 0 2.64 -1.28 2.7 -2.06 z M13.8 13.940000000000001 l5.82 0 c-0.1 -1.62 -0.78 -3.12 -2.92 -3.12 c-1.62 0 -2.9 1.5 -2.9 3.12 z M25.1 12.719999999999999 l-1.62 0 c0.08 -2.5 1.74 -3.48 4.32 -3.48 c0.84 0 3.88 0.24 3.88 2.92 l0 6.02 c0 0.44 0.22 0.62 0.58 0.62 c0.16 0 0.38 -0.04 0.58 -0.08 l0 1.28 c-0.3 0.08 -0.56 0.2 -0.96 0.2 c-1.56 0 -1.8 -0.8 -1.86 -1.6 c-0.68 0.74 -1.74 1.7 -3.78 1.7 c-1.92 0 -3.28 -1.22 -3.28 -3.02 c0 -0.88 0.26 -2.92 3.18 -3.28 l2.9 -0.36 c0.42 -0.04 0.92 -0.2 0.92 -1.24 c0 -1.1 -0.8 -1.7 -2.46 -1.7 c-2 0 -2.28 1.22 -2.4 2.02 z M29.92 16.38 l0 -1.72 c-0.28 0.22 -0.72 0.38 -2.9 0.66 c-0.86 0.12 -2.24 0.38 -2.24 1.7 c0 1.14 0.58 1.82 1.9 1.82 c1.64 0 3.24 -1.06 3.24 -2.46 z M36.46 5.640000000000001 l0 14.36 l-1.76 0 l0 -14.36 l1.76 0 z M46.739999999999995 12.52 l-1.7 0 c-0.02 -0.66 -0.26 -1.76 -2.48 -1.76 c-0.54 0 -2.08 0.18 -2.08 1.48 c0 0.86 0.54 1.06 1.9 1.4 l1.76 0.44 c2.18 0.54 2.94 1.34 2.94 2.76 c0 2.16 -1.78 3.46 -4.14 3.46 c-4.14 0 -4.44 -2.4 -4.5 -3.66 l1.7 0 c0.06 0.82 0.3 2.14 2.78 2.14 c1.26 0 2.4 -0.5 2.4 -1.66 c0 -0.84 -0.58 -1.12 -2.08 -1.5 l-2.04 -0.5 c-1.46 -0.36 -2.42 -1.1 -2.42 -2.54 c0 -2.3 1.9 -3.34 3.96 -3.34 c3.74 0 4 2.76 4 3.28 z M62.9 13.059999999999999 l-1.7 0 c-0.22 -1.4 -1 -2.24 -2.48 -2.24 c-2.18 0 -2.88 2.08 -2.88 3.94 c0 1.8 0.44 4.02 2.86 4.02 c1.18 0 2.2 -0.88 2.5 -2.48 l1.7 0 c-0.18 1.66 -1.2 4 -4.26 4 c-2.94 0 -4.68 -2.22 -4.68 -5.24 c0 -3.24 1.56 -5.82 5.02 -5.82 c2.74 0 3.78 2 3.92 3.82 z M64.06 14.76 c0 -2.7 1.52 -5.52 4.86 -5.52 s4.86 2.82 4.86 5.52 s-1.52 5.52 -4.86 5.52 s-4.86 -2.82 -4.86 -5.52 z M65.88 14.76 c0 1.4 0.52 4 3.04 4 s3.04 -2.6 3.04 -4 s-0.52 -4 -3.04 -4 s-3.04 2.6 -3.04 4 z M84.30000000000001 12.879999999999999 l0 7.12 l-1.76 0 l0 -6.44 c0 -1.82 -0.52 -2.74 -2.24 -2.74 c-1 0 -2.76 0.64 -2.76 3.48 l0 5.7 l-1.76 0 l0 -10.46 l1.66 0 l0 1.48 l0.04 0 c0.38 -0.56 1.36 -1.78 3.16 -1.78 c1.62 0 3.66 0.66 3.66 3.64 z M88.22000000000001 14.74 c0 2.3 0.9 4.04 2.82 4.04 c1.12 0 2.86 -0.74 2.86 -3.52 c0 -1.7 -0.28 -4.44 -2.82 -4.44 c-2.72 0 -2.86 2.58 -2.86 3.92 z M95.58000000000001 9.54 l0 9.6 c0 1.5 -0.02 5.26 -4.86 5.26 c-1.24 0 -3.66 -0.34 -4 -3.12 l1.76 0 c0.32 1.66 1.94 1.66 2.36 1.66 c3.04 0 2.98 -2.44 2.98 -3.68 l0 -0.44 l-0.04 0 l0 0.08 c-0.46 0.74 -1.38 1.4 -2.78 1.4 c-3.56 0 -4.6 -3.34 -4.6 -5.84 c0 -2.94 1.58 -5.22 4.36 -5.22 c1.9 0 2.7 1.18 3.12 1.78 l0.04 0 l0 -1.48 l1.66 0 z M97.42000000000002 14.76 c0 -2.7 1.52 -5.52 4.86 -5.52 s4.86 2.82 4.86 5.52 s-1.52 5.52 -4.86 5.52 s-4.86 -2.82 -4.86 -5.52 z M99.24000000000001 14.76 c0 1.4 0.52 4 3.04 4 s3.04 -2.6 3.04 -4 s-0.52 -4 -3.04 -4 s-3.04 2.6 -3.04 4 z"></path></g></svg>